<?xml version="1.0" encoding="utf-8"?>
<!-- Generator: Adobe Illustrator 24.2.1, SVG Export Plug-In . SVG Version: 6.00 Build 0)  -->
<svg version="1.1" id="Layer_1" xmlns="http://www.w3.org/2000/svg" xmlns:xlink="http://www.w3.org/1999/xlink" x="0px" y="0px"
	 viewBox="0 0 72 45.8" style="enable-background:new 0 0 72 45.8;" xml:space="preserve">
<style type="text/css">
	.st0{fill:#FFFFFF;}
</style>
<g>
	<g id="vGojO0_1_">
		<g>
			<g>
				<path class="st0" d="M19,43.3c-4.8,0-9.7,0-14.5,0c-1.8,0-2.8-1.1-2.8-2.8C2,32.7,7.1,26.2,14.5,24.1
					c9.6-2.7,19.8,3.7,21.5,13.5c0.2,0.9,0.2,1.8,0.3,2.7c0.1,1.8-1,2.9-2.8,2.9C28.7,43.3,23.9,43.3,19,43.3z"/>
				<path class="st0" d="M19,21.8c-5.4,0-9.9-4.4-9.9-9.9c0-5.4,4.4-9.9,9.8-9.9c5.5,0,10,4.4,9.9,9.9C28.9,17.6,24.4,21.8,19,21.8z
					"/>
			</g>
		</g>
	</g>
	<path class="st0" d="M60.4,1.9H46c-4.5,0-8.2,3.2-9.1,7.5l0,0L34,11.9l2.9,2.6l0,0c0.8,4.3,4.6,7.5,9.1,7.5h14.4
		c5.1,0,9.2-4.1,9.2-9.2v-1.7C69.6,6,65.4,1.9,60.4,1.9z"/>
</g>
</svg>
