<?xml version="1.0" encoding="utf-8"?>
<!-- Generator: Adobe Illustrator 24.2.1, SVG Export Plug-In . SVG Version: 6.00 Build 0)  -->
<svg version="1.1" id="Layer_1" xmlns="http://www.w3.org/2000/svg" xmlns:xlink="http://www.w3.org/1999/xlink" x="0px" y="0px"
	 viewBox="0 0 250 140.9" style="enable-background:new 0 0 250 140.9;" xml:space="preserve">
<style type="text/css">
	.st0{fill:#010101;}
	.st1{fill:#5C75B8;}
	.st2{fill:#FFFFFF;}
</style>
<g>
	<text transform="matrix(1 0 0 1 -240.8127 -131.1998)" class="st0" style="font-family:'CircularStd-Bold'; font-size:56.7604px;">debating</text>
	<text transform="matrix(1 0 0 1 -147.591 -84.3844)" class="st0" style="font-family:'CircularStd-Bold'; font-size:56.7604px;">africa</text>
	<g>
		<polygon class="st0" points="-173.4,-67.8 -196.9,-93.9 -262,-93.9 -262,-104.1 -192.3,-104.1 -180.9,-91.5 -179.4,-104.1 
			-160.1,-104.1 -160.1,-93.9 -170.3,-93.9 		"/>
	</g>
	<g>
		<polygon class="st0" points="-251.2,-156.2 -261.5,-156.2 -261.5,-199.6 -213.9,-199.6 -213.9,-189.3 -251.2,-189.3 		"/>
	</g>
</g>
<path class="st1" d="M193.9,4.6H56.3c-24,0-43.7,19.7-43.7,43.7v19.5c0,24,19.7,43.7,43.7,43.7v25.4l45.3-25.4h92.3
	c24,0,43.7-19.7,43.7-43.7V48.3C237.6,24.3,217.9,4.6,193.9,4.6z"/>
<circle class="st2" cx="65" cy="57.4" r="13.3"/>
<circle class="st2" cx="126.1" cy="57.4" r="13.3"/>
<circle class="st2" cx="187.3" cy="57.4" r="13.3"/>
</svg>
