<?xml version="1.0" encoding="utf-8"?>
<!-- Generator: Adobe Illustrator 24.2.1, SVG Export Plug-In . SVG Version: 6.00 Build 0)  -->
<svg version="1.1" id="Layer_1" xmlns="http://www.w3.org/2000/svg" xmlns:xlink="http://www.w3.org/1999/xlink" x="0px" y="0px"
	 viewBox="0 0 250 140.9" style="enable-background:new 0 0 250 140.9;" xml:space="preserve">
<style type="text/css">
	.st0{fill:#010101;}
	.st1{fill:#5C75B8;}
	.st2{fill:#FFFFFF;}
	.st3{fill:#F1C518;}
</style>
<g>
	
		<text transform="matrix(1 0 0 1 -240.8127 -131.1998)" class="st0" style="font-family:'CircularStd-Black'; font-size:56.7604px;">debating</text>
	<text transform="matrix(1 0 0 1 -147.591 -84.3844)" class="st0" style="font-family:'CircularStd-Book'; font-size:56.7604px;">africa</text>
	<g>
		<polygon class="st0" points="-173.4,-67.8 -196.9,-93.9 -262,-93.9 -262,-104.1 -192.3,-104.1 -180.9,-91.5 -179.4,-104.1 
			-160.1,-104.1 -160.1,-93.9 -170.3,-93.9 		"/>
	</g>
	<g>
		<polygon class="st0" points="-251.2,-156.2 -261.5,-156.2 -261.5,-199.6 -213.9,-199.6 -213.9,-189.3 -251.2,-189.3 		"/>
	</g>
</g>
<g>
	<path class="st1" d="M196-182.7h-139c-24.3,0-44.1,19.8-44.1,44.1v19.7c0,24.3,19.8,44.1,44.1,44.1v25.7l45.8-25.7H196
		c24.3,0,44.1-19.8,44.1-44.1v-19.7C240.1-162.8,220.3-182.7,196-182.7z"/>
	<circle class="st2" cx="65.9" cy="-129.4" r="13.5"/>
	<circle class="st2" cx="127.6" cy="-129.4" r="13.5"/>
	<circle class="st2" cx="189.3" cy="-129.4" r="13.5"/>
</g>
<g>
	<path class="st3" d="M196.3,4.1H57C32.7,4.1,12.8,24,12.8,48.3V68c0,24.3,19.9,44.2,44.2,44.2v25.7l45.8-25.7h93.4
		c24.3,0,44.2-19.9,44.2-44.2V48.3C240.4,24,220.6,4.1,196.3,4.1z"/>
	<g id="xJW6k6_3_">
		<g>
			<path class="st2" d="M99,89.8c-1.7-0.1-1.2-1.2-0.9-2c1.2-2.8,2.5-5.5,3.8-8.3c4.8-10.4,9.7-20.7,14.5-31.2
				c1-2.1,2.4-3.5,4.5-4.5c12.9-5.9,25.7-12,38.6-17.9c0.8-0.4,1.8-1.2,2.6-0.4c0.8,0.8,0,1.8-0.4,2.6c-6,12.9-12,25.7-17.9,38.6
				c-1,2.1-2.4,3.5-4.5,4.5c-12.9,5.9-25.7,11.9-38.6,17.9C100.1,89.4,99.6,89.6,99,89.8z M124.2,57.5c0,3.4,2.5,5.9,5.9,5.9
				c3.4,0,5.9-2.5,5.9-5.9c0-3.4-2.5-5.9-5.9-5.9C126.7,51.6,124.2,54.1,124.2,57.5z"/>
		</g>
	</g>
</g>
</svg>
