<?xml version="1.0" encoding="utf-8"?>
<!-- Generator: Adobe Illustrator 24.2.1, SVG Export Plug-In . SVG Version: 6.00 Build 0)  -->
<svg version="1.1" id="Layer_1" xmlns="http://www.w3.org/2000/svg" xmlns:xlink="http://www.w3.org/1999/xlink" x="0px" y="0px"
	 viewBox="0 0 289 100" style="enable-background:new 0 0 289 100;" xml:space="preserve">
<style type="text/css">
	.st0{fill:#ED4E05;}
</style>
<g id="YPBNil_16_">
	
		<image style="overflow:visible;" width="2000" height="676" id="YPBNil_2_" xlink:href="D2D9703DF13B4F1B.png"  transform="matrix(0.1395 0 0 0.1395 5 2.849)">
	</image>
</g>
<g id="JS0WJT_2_">
	<g>
		<path class="st0" d="M-65.9,217.9c0-9.3,0.1-18.5-0.1-27.7c-0.1-3.7,1-6.4,3.8-8.8c2.5-2.2,4.8-4.7,7.1-7c0.7-0.7,1.4-1.6,2.5-1.2
			c1.1,0.5,1.2,1.6,1.2,2.6c-0.1,4.7-0.3,9.3-0.5,14c0,1.6-0.1,3.1,0,4.7c0.1,3.7,0.9,4.1,4.2,2.4c8.9-4.5,17.4-3.2,25.3,2.1
			c12.9,8.8,16.9,25.8,8.3,40c-7.4,12.2-21.8,17.8-35.2,10.8c-1.5-0.8-3.2-2.3-4,0.9c-0.3,1.1-1.7,1-2.6,1c-2.1,0-4.2,0-6.4,0.1
			c-2.9,0.1-3.9-1.2-3.9-4C-65.8,237.7-65.9,227.8-65.9,217.9z M-51.2,223.4c0,1.1-0.1,2.2,0,3.3c0.2,2.3-0.9,5.1,0.7,6.8
			c2.8,3.1,6.4,5.3,10.7,5.5c7.3,0.4,14.2-4.7,16.3-11.8c1.8-6.3-1.3-13.9-7.5-17.4c-4.7-2.7-9.6-2.9-14.6-0.3
			c-4.8,2.4-6.3,6.1-5.5,11.1C-51.1,221.6-51.2,222.5-51.2,223.4z"/>
		<path class="st0" d="M43.8,230.8c0,5.6-0.1,11.1,0,16.7c0.1,3-1.2,4.3-4.1,4.2c-2.2-0.1-4.5,0-6.7,0c-0.9,0-2.2,0.1-2.4-0.7
			c-1.1-3.5-3-1.6-4.9-0.9c-9.9,3.7-19.8,3.9-28.4-2.9c-8.7-6.9-7.6-22.1,3.1-27.1c4.6-2.1,9.4-3.3,14.5-3.2c3,0,6,0.1,9-0.1
			c1.8-0.1,4.1,0.9,5-1.5c0.9-2.5-0.4-4.5-2.3-6.2c-5.5-4.8-11.4-2.9-17.3-1c-1.4,0.4-2.5,2.2-4.2,0.9c-2.3-1.8-4.7-3.5-5.9-6.2
			c-0.6-1.3,0.8-2.2,1.8-2.9c9.3-5.9,19.2-7.1,29.6-3.3c4.3,1.6,7.8,4.2,10.1,8.2c1.9,3.2,3,6.7,3.1,10.4
			C43.8,220.3,43.8,225.6,43.8,230.8z M22.1,227.1c0-0.1,0-0.1,0-0.2c-2.4,0.2-4.9,0.3-7.3,0.6c-1.4,0.2-2.8,0.6-4.2,1
			c-4.7,1.6-5.7,6.4-2.2,9.8c5.6,5.4,18.6,2,20.7-5.5c1.4-4.7,0.5-5.8-4.3-5.8C23.8,227.1,23,227.1,22.1,227.1z"/>
		<path class="st0" d="M-69.6,223.6c1.2,14-11.5,29.3-29.4,29.2c-14.4-0.1-28.8-10.8-28.9-30c-0.1-13,10.2-28.1,29.4-28.5
			C-85.5,194-69.4,204.5-69.6,223.6z M-98.1,207.8c-7.8,0.1-15,5.9-15.5,14.8c-0.6,9.5,6.9,16.4,15.4,16.6
			c7.4,0.1,15.4-5.5,15.6-15.4C-82.4,215.3-89.3,208.2-98.1,207.8z"/>
		<path class="st0" d="M-154.6,253c-8.7-0.5-16.9-2.1-24-7.3c-2.1-1.5-2.2-2.9-0.7-4.6c1.3-1.5,2.8-2.8,4.3-4.2
			c1.4-1.4,2.7-1.5,4.5-0.4c5.9,3.7,12.4,4.7,19.3,4.2c1.9-0.1,3.7-0.6,5.4-1.6c1.8-1.1,3.4-2.4,3.1-4.7c-0.3-2.2-2-3.3-4-4.1
			c-4.5-1.7-9.3-1.1-13.8-2c-4.1-0.8-8.2-1.6-12-3.7c-9.8-5.4-8-20.8-0.7-25.5c11.5-7.4,30-5.5,40.2,2.7c1.4,1.1,1.4,2.2,0.3,3.4
			c-1.5,1.7-3,3.3-4.5,4.9c-1.7,1.8-3.5,0.9-5.1-0.1c-6.4-3.9-13.2-4.3-20.3-2.6c-1.8,0.4-3.6,1-3.8,3.2c-0.3,2.4,1.6,3.3,3.4,4
			c4.2,1.6,8.7,2.1,13.1,2.4c4.7,0.4,8.9,2,12.9,4.2c5.1,2.8,7.4,7.7,7.5,13.3c0.1,5.7-2.2,10.4-7.1,13.6
			C-142.4,251.6-148.5,252.7-154.6,253z"/>
		<path class="st0" d="M49.9,223.3c0-7.8,0-15.6,0-23.4c0-4.2,0.3-4.5,4.5-4.7c1.8-0.1,3.6-0.3,5.3-0.3c1.8,0,3.6,0.2,3.8,2.7
			c0.1,2.1,1.2,1.2,2.3,0.6c2.5-1.4,5-2.9,7.9-3.6c2.6-0.6,4.2-0.2,3.9,3c-0.1,0.8,0,1.6,0,2.3c0,7.4,0,7.4-7,9.8
			c-3.4,1.1-6.3,5-6.3,8.7c-0.1,7.3-0.1,14.7-0.1,22c0,2.1,0.4,4.2,0.5,6.3c0.1,3.8-0.9,4.8-4.6,4.8c-1.9,0-3.8-0.1-5.7,0
			c-3.2,0.2-4.4-1.2-4.4-4.3C50,239.4,49.9,231.4,49.9,223.3z"/>
		<path class="st0" d="M-184.9,223.4c0,8-0.1,16,0,24c0,2.9-1,4.4-4,4.2c-1.9-0.1-3.8,0-5.7,0c-3.7-0.1-4.5-0.8-4.3-4.6
			c0.8-12.8,0.2-25.6,0.3-38.4c0-3-0.2-6-0.4-9c-0.1-2.9,0.8-4.7,4.2-4.4c2.1,0.2,4.2,0,6.3-0.1c2.6-0.1,3.6,1,3.5,3.6
			C-184.9,207-184.9,215.2-184.9,223.4z"/>
		<path class="st0" d="M-184.3,181.2c0,4.3-3.3,7.7-7.6,7.6c-4.7-0.1-7.7-3-7.7-7.4c0-4.1,3.4-7.9,7-7.9
			C-187.4,173.7-184.3,176.5-184.3,181.2z"/>
	</g>
</g>
</svg>
