<?xml version="1.0" encoding="utf-8"?>
<!-- Generator: Adobe Illustrator 24.2.1, SVG Export Plug-In . SVG Version: 6.00 Build 0)  -->
<svg version="1.1" id="Layer_1" xmlns="http://www.w3.org/2000/svg" xmlns:xlink="http://www.w3.org/1999/xlink" x="0px" y="0px"
	 viewBox="0 0 250 140.9" style="enable-background:new 0 0 250 140.9;" xml:space="preserve">
<style type="text/css">
	.st0{fill:#010101;}
	.st1{fill:#5C75B8;}
	.st2{fill:#FFFFFF;}
	.st3{fill:#F1C518;}
	.st4{fill:#5FBB46;}
	.st5{fill:#E03146;}
</style>
<g>
	
		<text transform="matrix(1 0 0 1 -240.8127 -131.1998)" class="st0" style="font-family:'CircularStd-Black'; font-size:56.7604px;">debating</text>
	<text transform="matrix(1 0 0 1 -147.591 -84.3844)" class="st0" style="font-family:'CircularStd-Book'; font-size:56.7604px;">africa</text>
	<g>
		<polygon class="st0" points="-173.4,-67.8 -196.9,-93.9 -262,-93.9 -262,-104.1 -192.3,-104.1 -180.9,-91.5 -179.4,-104.1 
			-160.1,-104.1 -160.1,-93.9 -170.3,-93.9 		"/>
	</g>
	<g>
		<polygon class="st0" points="-251.2,-156.2 -261.5,-156.2 -261.5,-199.6 -213.9,-199.6 -213.9,-189.3 -251.2,-189.3 		"/>
	</g>
</g>
<g>
	<path class="st1" d="M196-182.7h-139c-24.3,0-44.1,19.8-44.1,44.1v19.7c0,24.3,19.8,44.1,44.1,44.1v25.7l45.8-25.7H196
		c24.3,0,44.1-19.8,44.1-44.1v-19.7C240.1-162.8,220.3-182.7,196-182.7z"/>
	<circle class="st2" cx="65.9" cy="-129.4" r="13.5"/>
	<circle class="st2" cx="127.6" cy="-129.4" r="13.5"/>
	<circle class="st2" cx="189.3" cy="-129.4" r="13.5"/>
</g>
<g>
	<path class="st3" d="M197.2-331.2H58c-24.3,0-44.2,19.9-44.2,44.2v19.7c0,24.3,19.9,44.2,44.2,44.2v25.7l45.8-25.7h93.4
		c24.3,0,44.2-19.9,44.2-44.2V-287C241.4-311.3,221.5-331.2,197.2-331.2z"/>
	<g id="xJW6k6_3_">
		<g>
			<path class="st2" d="M100-245.4c-1.7-0.1-1.2-1.2-0.9-2c1.2-2.8,2.5-5.5,3.8-8.3c4.8-10.4,9.7-20.7,14.5-31.2
				c1-2.1,2.4-3.5,4.5-4.5c12.9-5.9,25.7-12,38.6-17.9c0.8-0.4,1.8-1.2,2.6-0.4c0.8,0.8,0,1.8-0.4,2.6c-6,12.9-12,25.7-17.9,38.6
				c-1,2.1-2.4,3.5-4.5,4.5c-12.9,5.9-25.7,11.9-38.6,17.9C101.1-245.9,100.5-245.7,100-245.4z M125.2-277.8c0,3.4,2.5,5.9,5.9,5.9
				c3.4,0,5.9-2.5,5.9-5.9c0-3.4-2.5-5.9-5.9-5.9C127.7-283.7,125.2-281.2,125.2-277.8z"/>
		</g>
	</g>
</g>
<g>
	<path class="st4" d="M196.2-483.3H56.9c-24.3,0-44.2,19.9-44.2,44.2v19.7c0,24.3,19.9,44.2,44.2,44.2v25.7l45.8-25.7h93.4
		c24.3,0,44.2-19.9,44.2-44.2v-19.7C240.4-463.4,220.5-483.3,196.2-483.3z"/>
	<g>
		<path class="st2" d="M126.6-399.6c-16.8,0-30.5-13.7-30.5-30.5s13.7-30.5,30.5-30.5s30.5,13.7,30.5,30.5S143.4-399.6,126.6-399.6z
			 M126.6-456.1c-14.3,0-25.9,11.6-25.9,25.9s11.6,25.9,25.9,25.9s25.9-11.6,25.9-25.9S140.9-456.1,126.6-456.1z"/>
		<path class="st2" d="M126.6-451.5c-1.3,0-2.3-1-2.3-2.3v-10.7c0-1.3,1-2.3,2.3-2.3c1.3,0,2.3,1,2.3,2.3v10.7
			C128.8-452.5,127.8-451.5,126.6-451.5z"/>
		<path class="st2" d="M160.9-427.9h-10.7c-1.3,0-2.3-1-2.3-2.3c0-1.3,1-2.3,2.3-2.3h10.7c1.3,0,2.3,1,2.3,2.3
			C163.2-428.9,162.1-427.9,160.9-427.9z"/>
		<path class="st2" d="M126.6-393.5c-1.3,0-2.3-1-2.3-2.3v-10.7c0-1.3,1-2.3,2.3-2.3c1.3,0,2.3,1,2.3,2.3v10.7
			C128.8-394.6,127.8-393.5,126.6-393.5z"/>
		<path class="st2" d="M102.9-427.9H92.2c-1.3,0-2.3-1-2.3-2.3c0-1.3,1-2.3,2.3-2.3h10.7c1.3,0,2.3,1,2.3,2.3
			C105.2-428.9,104.2-427.9,102.9-427.9z"/>
		<path class="st2" d="M126.6-421c-5,0-9.2-4.1-9.2-9.2c0-5,4.1-9.2,9.2-9.2c5,0,9.2,4.1,9.2,9.2C135.7-425.1,131.6-421,126.6-421z
			 M126.6-434.7c-2.5,0-4.6,2.1-4.6,4.6s2.1,4.6,4.6,4.6c2.5,0,4.6-2.1,4.6-4.6S129.1-434.7,126.6-434.7z"/>
	</g>
</g>
<g>
	<path class="st5" d="M196.9,5.4H57.3C33,5.4,13,25.4,13,49.7v19.8c0,24.4,19.9,44.3,44.3,44.3v25.8l45.9-25.8h93.6
		c24.4,0,44.3-19.9,44.3-44.3V49.7C241.2,25.4,221.2,5.4,196.9,5.4z"/>
	<g>
		<g id="_x34_qFjQN_3_">
			<g>
				<path class="st2" d="M128.6,91.4c-11.3,0-22.6,0-33.9,0c-1.6,0-1.6,0-1.5-1.5c0.3-8.1,3.1-15.2,8.3-21.4c3-3.6,6.7-6.5,10.8-8.7
					c0.7-0.4,1.1-0.3,1.7,0.2c3.5,3,7.5,4.9,12.1,5.4c5.2,0.6,10.1-0.5,14.6-3.4c1-0.7,2-1.4,2.9-2.2c0.4-0.4,0.7-0.4,1.2-0.2
					c8.4,4.5,14.3,11.2,17.5,20.2c1.2,3.3,1.8,6.6,1.9,10.1c0,1.5,0,1.5-1.4,1.5C151.3,91.4,139.9,91.4,128.6,91.4z"/>
			</g>
		</g>
		<circle class="st2" cx="128.6" cy="43.6" r="16.9"/>
	</g>
</g>
</svg>
