<?xml version="1.0" encoding="utf-8"?>
<!-- Generator: Adobe Illustrator 24.2.1, SVG Export Plug-In . SVG Version: 6.00 Build 0)  -->
<svg version="1.1" id="Layer_1" xmlns="http://www.w3.org/2000/svg" xmlns:xlink="http://www.w3.org/1999/xlink" x="0px" y="0px"
	 viewBox="0 0 47.2 45.8" style="enable-background:new 0 0 47.2 45.8;" xml:space="preserve">
<style type="text/css">
	.st0{fill:#5C75B8;}
	.st1{fill:none;stroke:#5C75B8;stroke-miterlimit:10;}
</style>
<g>
	<circle class="st0" cx="23.4" cy="17.1" r="7.6"/>
	<path class="st0" d="M38.7,7.6c-4.1-4.1-9.5-6.3-15.3-6.3c-5.8,0-11.2,2.3-15.3,6.3C4,11.7,1.7,17.1,1.7,22.9c0,4.5,1.4,8.8,4,12.5
		c0.5,0.8,1.2,1.5,1.8,2.2c0.2,0.2,0.5,0.5,0.7,0.7c4.1,4,9.5,6.2,15.2,6.2c5.7,0,11.1-2.2,15.2-6.2c0.2-0.2,0.5-0.5,0.7-0.7
		c0.7-0.8,1.4-1.7,2.1-2.6c2.4-3.6,3.7-7.8,3.7-12.1C45,17.1,42.8,11.7,38.7,7.6z M40.3,34.3c-0.1,0.1-0.2,0.2-0.3,0.4
		c-0.5,0-1,0-1.5,0c-0.1-0.6-0.3-1.2-0.5-1.9c-1.4-3.9-4-6.8-7.6-8.8c-0.2-0.1-0.4-0.1-0.5,0.1c-0.4,0.4-0.8,0.7-1.3,1
		c-1.9,1.3-4.1,1.7-6.3,1.5c-2-0.2-3.7-1-5.3-2.4c-0.2-0.2-0.4-0.2-0.7-0.1c-1.8,1-3.4,2.2-4.7,3.8C9.8,30,8.7,32.4,8.2,35
		c-0.4,0-0.8,0-1.2,0c-0.1-0.1-0.2-0.2-0.3-0.4C4.3,31.2,3,27.2,3,22.9c0-5.4,2.1-10.6,6-14.4c3.9-3.9,9-6,14.4-6
		c5.4,0,10.6,2.1,14.4,6s6,9,6,14.4C43.8,27,42.6,31,40.3,34.3z"/>
	<circle class="st1" cx="23.4" cy="22.9" r="21.6"/>
</g>
</svg>
