<?xml version="1.0" encoding="utf-8"?>
<!-- Generator: Adobe Illustrator 24.2.1, SVG Export Plug-In . SVG Version: 6.00 Build 0)  -->
<svg version="1.1" id="Layer_1" xmlns="http://www.w3.org/2000/svg" xmlns:xlink="http://www.w3.org/1999/xlink" x="0px" y="0px"
	 viewBox="0 0 151.2 140.9" style="enable-background:new 0 0 151.2 140.9;" xml:space="preserve">
<style type="text/css">
	.st0{fill:#010101;}
	.st1{fill:#5C75B8;}
	.st2{fill:#FFFFFF;}
	.st3{fill:#F1C518;}
	.st4{fill:#5FBB46;}
	.st5{fill:#E03146;}
</style>
<g>
	<text transform="matrix(1 0 0 1 -339.6049 -131.1998)" class="st0" style="font-family:'ArialMT'; font-size:56.7604px;">debating</text>
	<text transform="matrix(1 0 0 1 -246.3832 -84.3844)" class="st0" style="font-family:'ArialMT'; font-size:56.7604px;">africa</text>
	<g>
		<polygon class="st0" points="-272.2,-67.8 -295.7,-93.9 -360.8,-93.9 -360.8,-104.1 -291.1,-104.1 -279.7,-91.5 -278.2,-104.1 
			-258.9,-104.1 -258.9,-93.9 -269.1,-93.9 		"/>
	</g>
	<g>
		<polygon class="st0" points="-350,-156.2 -360.3,-156.2 -360.3,-199.6 -312.7,-199.6 -312.7,-189.3 -350,-189.3 		"/>
	</g>
</g>
<g>
	<path class="st1" d="M97.2-182.7h-139c-24.3,0-44.1,19.8-44.1,44.1v19.7c0,24.3,19.8,44.1,44.1,44.1v25.7L4-74.8h93.2
		c24.3,0,44.1-19.8,44.1-44.1v-19.7C141.3-162.8,121.5-182.7,97.2-182.7z"/>
	<circle class="st2" cx="-32.9" cy="-129.4" r="13.5"/>
	<circle class="st2" cx="28.8" cy="-129.4" r="13.5"/>
	<circle class="st2" cx="90.5" cy="-129.4" r="13.5"/>
</g>
<g>
	<path class="st3" d="M98.4-331.2H-40.8c-24.3,0-44.2,19.9-44.2,44.2v19.7c0,24.3,19.9,44.2,44.2,44.2v25.7L5-223.1h93.4
		c24.3,0,44.2-19.9,44.2-44.2V-287C142.6-311.3,122.7-331.2,98.4-331.2z"/>
	<g id="xJW6k6_3_">
		<g>
			<path class="st2" d="M1.2-245.4c-1.7-0.1-1.2-1.2-0.9-2c1.2-2.8,2.5-5.5,3.8-8.3c4.8-10.4,9.7-20.7,14.5-31.2
				c1-2.1,2.4-3.5,4.5-4.5c12.9-5.9,25.7-12,38.6-17.9c0.8-0.4,1.8-1.2,2.6-0.4c0.8,0.8,0,1.8-0.4,2.6c-6,12.9-12,25.7-17.9,38.6
				c-1,2.1-2.4,3.5-4.5,4.5c-12.9,5.9-25.7,11.9-38.6,17.9C2.3-245.9,1.7-245.7,1.2-245.4z M26.4-277.8c0,3.4,2.5,5.9,5.9,5.9
				s5.9-2.5,5.9-5.9s-2.5-5.9-5.9-5.9C28.9-283.7,26.4-281.2,26.4-277.8z"/>
		</g>
	</g>
</g>
<g>
	<path class="st4" d="M97.4-483.3H-41.9c-24.3,0-44.2,19.9-44.2,44.2v19.7c0,24.3,19.9,44.2,44.2,44.2v25.7l45.8-25.7h93.4
		c24.3,0,44.2-19.9,44.2-44.2v-19.7C141.6-463.4,121.7-483.3,97.4-483.3z"/>
	<g>
		<path class="st2" d="M27.8-399.6c-16.8,0-30.5-13.7-30.5-30.5s13.7-30.5,30.5-30.5s30.5,13.7,30.5,30.5S44.6-399.6,27.8-399.6z
			 M27.8-456.1c-14.3,0-25.9,11.6-25.9,25.9s11.6,25.9,25.9,25.9s25.9-11.6,25.9-25.9S42.1-456.1,27.8-456.1z"/>
		<path class="st2" d="M27.8-451.5c-1.3,0-2.3-1-2.3-2.3v-10.7c0-1.3,1-2.3,2.3-2.3s2.3,1,2.3,2.3v10.7
			C30-452.5,29-451.5,27.8-451.5z"/>
		<path class="st2" d="M62.1-427.9H51.4c-1.3,0-2.3-1-2.3-2.3s1-2.3,2.3-2.3h10.7c1.3,0,2.3,1,2.3,2.3S63.3-427.9,62.1-427.9z"/>
		<path class="st2" d="M27.8-393.5c-1.3,0-2.3-1-2.3-2.3v-10.7c0-1.3,1-2.3,2.3-2.3s2.3,1,2.3,2.3v10.7
			C30-394.6,29-393.5,27.8-393.5z"/>
		<path class="st2" d="M4.1-427.9H-6.6c-1.3,0-2.3-1-2.3-2.3s1-2.3,2.3-2.3H4.1c1.3,0,2.3,1,2.3,2.3S5.4-427.9,4.1-427.9z"/>
		<path class="st2" d="M27.8-421c-5,0-9.2-4.1-9.2-9.2c0-5,4.1-9.2,9.2-9.2c5,0,9.2,4.1,9.2,9.2C36.9-425.1,32.8-421,27.8-421z
			 M27.8-434.7c-2.5,0-4.6,2.1-4.6,4.6s2.1,4.6,4.6,4.6c2.5,0,4.6-2.1,4.6-4.6S30.3-434.7,27.8-434.7z"/>
	</g>
</g>
<g>
	<path class="st5" d="M98.1,194.1H-41.5c-24.3,0-44.3,20-44.3,44.3v19.8c0,24.4,19.9,44.3,44.3,44.3v25.8l45.9-25.8H98
		c24.4,0,44.3-19.9,44.3-44.3v-19.8C142.4,214.1,122.4,194.1,98.1,194.1z"/>
	<g>
		<g id="_x34_qFjQN_3_">
			<g>
				<path class="st2" d="M29.8,280.1c-11.3,0-22.6,0-33.9,0c-1.6,0-1.6,0-1.5-1.5c0.3-8.1,3.1-15.2,8.3-21.4c3-3.6,6.7-6.5,10.8-8.7
					c0.7-0.4,1.1-0.3,1.7,0.2c3.5,3,7.5,4.9,12.1,5.4c5.2,0.6,10.1-0.5,14.6-3.4c1-0.7,2-1.4,2.9-2.2c0.4-0.4,0.7-0.4,1.2-0.2
					c8.4,4.5,14.3,11.2,17.5,20.2c1.2,3.3,1.8,6.6,1.9,10.1c0,1.5,0,1.5-1.4,1.5C52.5,280.1,41.1,280.1,29.8,280.1z"/>
			</g>
		</g>
		<circle class="st2" cx="29.8" cy="232.2" r="16.9"/>
	</g>
</g>
<g>
	<circle class="st2" cx="77.9" cy="54.1" r="23.5"/>
	<path class="st2" d="M125.2,24.9C112.6,12.3,95.8,5.3,77.9,5.3s-34.7,7-47.3,19.6S11,54.3,11,72.1c0,13.9,4.2,27.2,12.2,38.6
		c1.7,2.4,3.6,4.7,5.6,6.9c0.7,0.7,1.4,1.5,2.1,2.2c12.6,12.4,29.3,19.2,47,19.2s34.4-6.8,46.9-19.2c0.7-0.7,1.4-1.5,2.1-2.2
		c2.3-2.5,4.4-5.2,6.4-8c7.5-11.1,11.4-24,11.4-37.4C144.8,54.3,137.8,37.5,125.2,24.9z M130.1,107.4c-0.3,0.4-0.5,0.7-0.8,1.1
		c-1.5,0-3.1,0-4.7,0c-0.4-1.9-0.9-3.9-1.6-5.7c-4.3-12.1-12.2-21.1-23.5-27.1c-0.7-0.3-1.1-0.3-1.6,0.2c-1.2,1.1-2.6,2.1-4,3
		c-6,3.9-12.5,5.3-19.6,4.5c-6.2-0.7-11.6-3.2-16.2-7.3c-0.8-0.7-1.3-0.7-2.2-0.3c-5.6,3-10.5,6.9-14.5,11.7
		c-5.5,6.5-8.9,13.9-10.4,21.9c-1.3,0-2.5,0-3.8,0c-0.3-0.4-0.5-0.7-0.8-1.1C18.9,97.6,14.9,85.1,14.9,72c0-16.8,6.6-32.6,18.5-44.5
		C45.2,15.7,61.1,9.2,77.9,9.2s32.6,6.6,44.5,18.4c11.9,11.9,18.4,27.7,18.4,44.5C140.9,84.8,137.2,97,130.1,107.4z"/>
</g>
</svg>
